<svg width="1102" height="222" xmlns="http://www.w3.org/2000/svg"><path d="M1041.162 59.695c-14.39 0-26.02 3.98-37.66 12.551v-7.959h-68.879v153.068h68.879v-90.617c4.591-3.979 8.57-5.509 14.091-5.509 6.729 0 15.299 3.366 15.299 18.979v77.147h68.88V121.84c0-41.022-25.71-62.145-60.61-62.145zM832.987 170.822c-17.45 0-30.306-12.858-30.306-30.001 0-16.837 12.856-29.696 30.306-29.696 17.146 0 30.005 12.859 30.005 29.696 0 17.143-12.859 30.001-30.005 30.001zm0-111.127c-51.737 0-89.39 35.205-89.39 80.513 0 45.92 37.653 81.738 89.39 81.738 51.736 0 89.396-35.818 89.396-81.738 0-45.308-37.66-80.513-89.396-80.513zm-171.742 157.66h68.88V0h-68.88v217.355zm-88.776 0h68.881V0h-68.881v217.355zm-103.165-46.533c-17.45 0-30.308-12.858-30.308-30.001 0-16.837 12.858-29.696 30.308-29.696 17.143 0 30.001 12.859 30.001 29.696 0 17.143-12.858 30.001-30.001 30.001zm0-111.127c-51.737 0-89.392 35.205-89.392 80.513 0 45.92 37.655 81.738 89.392 81.738 51.736 0 89.391-35.818 89.391-81.738 0-45.308-37.655-80.513-89.391-80.513zm-105.921 92.759c-11.633 3.673-18.981 6.428-28.471 6.428-13.775 0-18.368-5.815-18.368-17.143v-17.755h44.39V64.287h-44.39v-45.92h-68.88v45.92h-24.491v59.697h24.491v22.042c0 45.613 29.39 75.92 71.941 75.92 4.286 0 30.308-.306 49.595-9.184l-5.817-60.308zm-259.909-14.695l16.53-47.757 16.533 47.757h-33.063zm60.307 79.596h76.228L155.516 9.183H84.494L0 217.355h76.227l8.267-23.879h71.022l8.265 23.879z" fill-rule="evenodd"/></svg>
