<svg xmlns="http://www.w3.org/2000/svg" width="176" height="40" viewBox="0 0 585 96">
  <g fill="#000000" fill-rule="evenodd">
    <path fill="#FB4C06" d="M60.274 3.444s-25.44-4.007-54.75 7.381L2.59 13.718l10.63 41.594 12.498 18.217L45.44 91.926l4.395 1.367-12.987-61.219 23.426-28.63z" transform="translate(0 .66)"/>
    <path fill="#274693" d="M61.898 3.605L91.003 10.252 95.043 12.774 94.728 19.519 84.447 53.486 68.502 78.091 52.721 91.536 48.272 88.606 38.167 35.296z" transform="translate(0 .66)"/>
    <path fill="#FFF" d="M74.338 12.161c-.957 3.541-4.662 14.998-14.294 23.311C48.52 45.42 40.826 44.147 42.716 52.08c1.182 4.957 1.684 7.056 1.874 7.866.08.335-.05.684-.33.884l-.072.052c-.29.202-.522.194-.37.815l7.238 29.591c.118.484-.185.953-.674 1.045-1.065.203-2.669.17-3.152-1.81l-6.79-27.816c-.126-.41-.213-.46-.502-.434-.128.011-.539.033-.709.003-.224-.039-.4-.212-.453-.433l-.833-3.547s-1.415-6.068-3.459-11.12c-2.045-5.052-4.663-13.453-2.85-22.339 1.972-9.66 18.573-27.578 41.901-14.364 1.034.585.93 1.083.803 1.69" transform="translate(0 .66)"/>
    <path fill="#0A1245" d="M49.072 5.518c-14.547.02-28.5 2.552-42.658 7.737-.699.256-1.346.845-1.22 1.583 6.442 37.44 20.543 61.903 43.107 74.785.474.27 1.066.272 1.543 0C72.41 76.74 86.508 52.279 92.95 14.839c.129-.744-.513-1.33-1.206-1.58-14.597-5.261-28.154-7.72-42.67-7.741m0 89.482c-1.156 0-2.31-.294-3.339-.881C21.742 80.422 6.813 54.776.092 15.716c-.54-3.133 1.327-6.145 4.543-7.322C19.37 2.997 33.904.362 49.068.34h.009c15.13.02 29.246 2.578 44.422 8.049 3.224 1.163 5.096 4.175 4.553 7.327-6.72 39.059-21.65 64.705-45.642 78.402-1.028.587-2.183.88-3.337.88M113.573 65.966l4.535-5.432c.63-.756 1.745-.884 2.528-.29 4.349 3.291 8.947 5.328 14.407 5.328 4.758 0 7.627-1.889 7.627-4.985v-.15c0-2.945-1.813-4.456-10.647-6.721-10.647-2.72-17.52-5.663-17.52-16.16v-.152c0-9.59 7.703-15.934 18.502-15.934 7.008 0 13.082 2.003 18.157 5.607.833.59 1.046 1.737.468 2.577l-3.923 5.688c-.607.879-1.8 1.123-2.702.553-4.135-2.613-8.202-4.155-12.153-4.155-4.454 0-6.796 2.04-6.796 4.607v.15c0 3.474 2.266 4.608 11.404 6.949 10.722 2.794 16.763 6.645 16.763 15.858v.15c0 10.497-8.004 16.387-19.407 16.387-7.397 0-14.859-2.385-20.954-7.217-.825-.653-.962-1.852-.288-2.658M158.83 60.814V36.61c0-1.104.895-1.999 1.998-1.999h7.481c1.104 0 2 .895 2 2v20.58c0 5.436 2.567 8.23 6.947 8.23s7.174-2.794 7.174-8.23V36.61c0-1.105.894-2 1.998-2h7.481c1.104 0 2 .895 2 2v36.477c0 1.104-.896 2-2 2h-7.48c-1.105 0-1.999-.896-1.999-2v-3.536c-2.643 3.398-6.04 6.29-11.857 6.29-8.683 0-13.743-5.739-13.743-15.027M233.211 54.923v-.15c0-6.72-4.53-10.177-9.893-10.177-5.36 0-9.817 3.457-9.817 10.178v.15c0 6.721 4.456 10.176 9.817 10.176 5.362 0 9.893-3.38 9.893-10.176M204.176 34.61h7.474c1.106 0 2.002.896 2.002 2v3.814c2.794-3.775 6.646-5.57 12.612-5.57 9.44 0 17.426 6.4 17.426 19.919v.15c0 13.518-7.836 19.917-17.426 19.917-6.117 0-9.893-1.793-12.612-5.04v15.367c0 1.105-.896 2.001-2.002 2.001h-7.474c-1.106 0-2.002-.895-2.002-2.001V36.61c0-1.104.896-2 2.002-2M272.887 44.222c0 1.042-.804 1.881-1.841 1.991-6.623.701-11.073 5.054-11.073 13.921V73.09c0 1.103-.895 1.997-1.997 1.997h-7.483c-1.103 0-1.998-.894-1.998-1.997V36.607c0-1.103.895-1.997 1.998-1.997h7.483c1.102 0 1.997.894 1.997 1.997v5.028c4.058-6.78 9.127-7.476 10.7-7.476 1.188 0 2.214.805 2.214 1.992v8.071zM302.164 51.676c-.68-5.135-3.7-8.608-8.534-8.608-4.757 0-7.854 3.398-8.76 8.608h17.294zm-28.545 3.398v-.15c0-11.555 8.231-21.069 20.011-21.069 13.517 0 19.71 10.496 19.71 21.974 0 .351-.01.724-.03 1.111-.049 1.066-.929 1.91-1.997 1.91l-26.566.027c1.133 5.211 5.032 7.903 10.167 7.903 3.327 0 5.864-.902 8.538-3.045.763-.612 1.853-.6 2.584.046l3.765 3.332c.844.748.921 2.063.132 2.87-3.683 3.761-8.687 6.01-15.17 6.01-12.158 0-21.144-8.534-21.144-20.919zM319.874 34.61h7.471c1.106 0 2.004.897 2.004 2.004v3.735c2.642-3.398 6.116-6.494 11.931-6.494 5.286 0 9.288 2.341 11.403 6.419 3.55-4.153 7.778-6.419 13.291-6.419 8.533 0 13.668 5.135 13.668 14.876v24.352c0 1.106-.898 2.004-2.004 2.004h-7.47c-1.107 0-2.005-.898-2.005-2.004V52.507c0-5.437-2.416-8.231-6.72-8.231-4.305 0-6.948 2.794-6.948 8.231v20.576c0 1.106-.897 2.004-2.004 2.004h-7.47c-1.107 0-2.004-.898-2.004-2.004V52.507c0-5.437-2.416-8.231-6.72-8.231-4.306 0-6.948 2.794-6.948 8.231v20.576c0 1.106-.898 2.004-2.004 2.004h-7.47c-1.107 0-2.005-.898-2.005-2.004V36.614c0-1.107.898-2.004 2.004-2.004M440.412 48.807v-.15c0-15.029 11.705-27.338 27.715-27.338 8.59 0 14.101 2.092 19.148 5.944.902.688 1.046 1.997.322 2.87l-4.779 5.763c-.686.828-1.9.954-2.758.306-3.51-2.655-6.956-4.16-12.31-4.16-8.459 0-15.18 7.476-15.18 16.463v.151c0 9.666 6.646 16.764 16.01 16.764 4.228 0 8.005-1.057 10.95-3.172v-7.55h-9.706c-1.104 0-2-.897-2-2v-6.044c0-1.105.896-2 2-2h18.957c1.105 0 2 .895 2 2v20.01c0 .6-.262 1.173-.728 1.55-5.37 4.328-12.61 7.78-21.85 7.78-16.463 0-27.79-11.555-27.79-27.187M527.254 55.075v-.151c0-5.966-4.305-11.176-10.647-11.176-6.57 0-10.498 5.059-10.498 11.025v.15c0 5.966 4.305 11.177 10.648 11.177 6.57 0 10.497-5.06 10.497-11.025m-32.472 0v-.151c0-11.63 9.364-21.07 21.975-21.07 12.536 0 21.824 9.289 21.824 20.919v.15c0 11.63-9.364 21.07-21.974 21.07-12.537 0-21.825-9.288-21.825-20.918M545.412 22.384h7.48c1.104 0 2 .855 2 1.911v48.88c0 1.056-.896 1.911-2 1.911h-7.48c-1.104 0-1.999-.855-1.999-1.91v-48.88c0-1.057.895-1.912 2-1.912M563.65 45.93h-2.755c-1.105 0-2.002-.897-2.002-2.003v-5.435c0-1.106.897-2.002 2.002-2.002h2.756v-2.117c0-4.456 1.133-7.703 3.247-9.817s5.21-3.172 9.288-3.172c2.782 0 4.853.267 6.62.698.902.22 1.536 1.022 1.536 1.95v5.344c0 1.263-1.155 2.216-2.391 1.96-.88-.184-1.8-.286-2.82-.286-2.642 0-4.153 1.36-4.153 4.38v1.135h7.286c1.106 0 2.002.896 2.002 2.002v5.36c0 1.106-.896 2.002-2.002 2.002h-7.134v27.155c0 1.106-.897 2.002-2.002 2.002h-7.475c-1.106 0-2.002-.896-2.002-2.002V45.93zM412.187 51.676c-.68-5.135-3.701-8.608-8.534-8.608-4.757 0-7.854 3.398-8.76 8.608h17.294zm-28.545 3.398v-.15c0-11.555 8.23-21.069 20.01-21.069 13.518 0 19.71 10.496 19.71 21.974 0 .351-.01.724-.03 1.111-.048 1.066-.928 1.91-1.996 1.91l-26.566.027c1.133 5.211 5.032 7.903 10.167 7.903 3.327 0 5.864-.902 8.538-3.045.763-.612 1.853-.6 2.584.046l3.765 3.332c.844.748.92 2.063.132 2.87-3.683 3.761-8.687 6.01-15.17 6.01-12.158 0-21.144-8.534-21.144-20.919z" transform="translate(0 .66)"/>
  </g>
</svg>
